<svg width="6" height="4" viewBox="0 0 6 4" fill="none" xmlns="http://www.w3.org/2000/svg">
<path d="M3.23412 2.95858L5.90415 0.686146C5.96595 0.633587 6 0.563426 6 0.488615C6 0.413804 5.96595 0.343643 5.90415 0.291084L5.70756 0.123735C5.57947 0.0148391 5.37127 0.0148391 5.24337 0.123734L3.00124 2.03196L0.756628 0.121617C0.694824 0.0690582 0.612434 0.0400388 0.524581 0.0400388C0.436631 0.0400388 0.354241 0.0690582 0.292387 0.121617L0.0958528 0.288966C0.0340485 0.341567 -1.62452e-08 0.411686 -1.95153e-08 0.486497C-2.27854e-08 0.561309 0.0340485 0.63147 0.0958528 0.684029L2.76832 2.95858C2.83032 3.01127 2.9131 3.0402 3.0011 3.04004C3.08944 3.0402 3.17217 3.01127 3.23412 2.95858Z" fill="#33425F"/>
</svg>
