<svg width="16" height="16" viewBox="0 0 16 16" fill="none" xmlns="http://www.w3.org/2000/svg">
<path fill-rule="evenodd" clip-rule="evenodd" d="M4.20386 1.99023C4.20386 1.81425 4.19178 1.64636 4.20716 1.48105C4.2235 1.30518 4.30932 1.14998 4.4612 1.05798C4.58414 0.98351 4.73419 0.954924 4.87651 0.995624C4.98352 1.02622 5.08018 1.08845 5.15398 1.1812C5.2343 1.28215 5.27275 1.39134 5.26781 1.5211C5.26205 1.67244 5.26647 1.82419 5.26647 1.98291C7.43095 1.98291 9.58451 1.98291 11.7567 1.98291C11.7567 1.85695 11.7495 1.73054 11.7585 1.60525C11.771 1.42999 11.8126 1.2601 11.9363 1.1268C11.9735 1.08677 12.0387 1.07432 12.0831 1.03914C12.1566 0.980901 12.2401 0.988394 12.3238 0.986568C12.5212 0.982263 12.6418 1.10332 12.7597 1.23983C12.8122 1.30067 12.8096 1.36442 12.8169 1.43205C12.8365 1.61463 12.8573 1.79707 12.8788 1.99019C12.9114 1.99019 12.9478 1.99019 12.9842 1.99019C13.829 1.99055 14.6738 1.99019 15.5185 1.99176C15.7078 1.99211 15.8661 2.13069 15.9524 2.3002C16.0034 2.40035 15.9974 2.493 15.9975 2.58956C15.9991 6.52773 15.9986 10.4659 16.0005 14.4041C16.0006 14.5281 15.9999 14.653 15.9334 14.7566C15.8772 14.8439 15.8013 14.9163 15.7009 14.9697C15.5587 15.0454 15.414 15.0182 15.2707 15.0183C10.7176 15.0204 6.16448 15.0195 1.61135 15.0224C1.47747 15.0225 1.34689 15.0133 1.23057 14.955C1.13588 14.9075 1.06615 14.8248 1.0108 14.7259C0.930682 14.5828 0.960536 14.4337 0.960461 14.2874C0.958486 10.3803 0.959399 6.47314 0.956305 2.56602C0.956212 2.45068 0.96648 2.33713 1.02505 2.24643C1.07835 2.16388 1.15354 2.09288 1.24946 2.03921C1.36471 1.97473 1.47857 1.99217 1.59324 1.99176C2.41938 1.98885 3.24553 1.99021 4.07167 1.99021C4.10889 1.99023 4.14609 1.99023 4.20386 1.99023ZM14.9291 13.9531C14.9291 11.1373 14.9291 8.32889 14.9291 5.52282C10.6236 5.52282 6.32464 5.52282 2.02709 5.52282C2.02709 8.33651 2.02709 11.1427 2.02709 13.9531C6.32881 13.9531 10.6256 13.9531 14.9291 13.9531ZM11.7567 3.06387C9.58848 3.06387 7.42988 3.06387 5.26387 3.06387C5.26387 3.19941 5.27373 3.32758 5.26006 3.45321C5.25225 3.52492 5.21363 3.59704 5.17506 3.66057C5.13544 3.72579 5.08111 3.77874 4.99815 3.79968C4.91257 3.8213 4.83313 3.8708 4.74711 3.88556C4.69761 3.89405 4.6406 3.84517 4.58669 3.84446C4.47081 3.84296 4.39288 3.76155 4.33692 3.69344C4.25662 3.59572 4.18912 3.47432 4.2019 3.33014C4.20975 3.2418 4.20335 3.15222 4.20335 3.06165C3.47092 3.06165 2.74951 3.06165 2.02972 3.06165C2.02972 3.52581 2.02972 3.98365 2.02972 4.44343C6.33314 4.44343 10.6289 4.44343 14.9315 4.44343C14.9315 3.98019 14.9315 3.52248 14.9315 3.06139C14.2408 3.06139 13.5534 3.06139 12.8752 3.06139C12.8549 3.19253 12.8395 3.31687 12.8152 3.43947C12.8005 3.5137 12.7901 3.5995 12.7462 3.65513C12.6399 3.78975 12.4943 3.87609 12.3189 3.88652C12.2605 3.89001 12.2008 3.85257 12.1403 3.84208C11.9704 3.81264 11.8722 3.68828 11.8148 3.55118C11.7663 3.43504 11.773 3.29548 11.7573 3.16605C11.7533 3.13314 11.7567 3.09934 11.7567 3.06387Z" fill="#56CE84"/>
<path fill-rule="evenodd" clip-rule="evenodd" d="M8.47989 7.97412C9.7496 7.97412 11.0193 7.97584 12.289 7.97244C12.5024 7.97188 12.6461 8.06871 12.7608 8.23767C12.8315 8.34195 12.8248 8.45051 12.823 8.56763C12.8211 8.68684 12.7785 8.78054 12.7023 8.86127C12.6578 8.9084 12.601 8.94512 12.5463 8.98127C12.4113 9.0705 12.2579 9.03757 12.1113 9.03764C9.64642 9.03909 7.18151 9.03826 4.7166 9.04004C4.60335 9.04012 4.48591 9.04299 4.39702 8.97478C4.31821 8.91429 4.24251 8.84651 4.19081 8.7481C4.13776 8.64713 4.14817 8.55075 4.144 8.45043C4.13736 8.291 4.22827 8.18174 4.33949 8.08525C4.43686 8.00077 4.55014 7.97207 4.68005 7.97235C5.94667 7.97524 7.21328 7.97412 8.47989 7.97412Z" fill="#56CE84"/>
<path fill-rule="evenodd" clip-rule="evenodd" d="M6.57274 11.6139C5.91434 11.6139 5.25594 11.6125 4.59755 11.6148C4.40926 11.6155 4.29862 11.5037 4.20164 11.3651C4.10455 11.2263 4.1205 11.0623 4.15893 10.9234C4.20149 10.7696 4.31258 10.6532 4.48792 10.5909C4.63872 10.5373 4.78291 10.5512 4.92936 10.5507C6.08778 10.5471 7.24623 10.5502 8.40464 10.5473C8.61774 10.5468 8.78822 10.6239 8.92775 10.7802C9.02016 10.8838 9.02577 11.1625 8.97328 11.2941C8.92192 11.423 8.8314 11.5003 8.72678 11.5717C8.69708 11.5921 8.65755 11.6081 8.62229 11.6085C8.28075 11.6133 7.93918 11.6151 7.59761 11.6161C7.25598 11.6171 6.91435 11.6163 6.57272 11.6163C6.57274 11.6155 6.57274 11.6147 6.57274 11.6139Z" fill="#56CE84"/>
</svg>
