<svg width="7" height="3" viewBox="0 0 7 3" fill="none" xmlns="http://www.w3.org/2000/svg">
<path d="M3.73412 2.91855L6.40415 0.646107C6.46595 0.593548 6.5 0.523387 6.5 0.448576C6.5 0.373765 6.46595 0.303604 6.40415 0.251045L6.20756 0.0836954C6.07947 -0.0251999 5.87127 -0.0252 5.74337 0.0836954L3.50124 1.99192L1.25663 0.0815779C1.19482 0.0290192 1.11243 -2.35498e-07 1.02458 -2.39338e-07C0.936631 -2.43183e-07 0.854241 0.0290192 0.792387 0.0815779L0.595853 0.248927C0.534049 0.301527 0.5 0.371647 0.5 0.446458C0.5 0.52127 0.534049 0.591431 0.595853 0.64399L3.26832 2.91855C3.33032 2.97123 3.4131 3.00017 3.5011 3C3.58944 3.00017 3.67217 2.97123 3.73412 2.91855Z" fill="#33425F"/>
</svg>
