<svg width="9" height="18" viewBox="0 0 9 18" fill="none" xmlns="http://www.w3.org/2000/svg">
<path d="M8.64708 0.705113L6.4948 0.70166C4.07679 0.70166 2.51416 2.30486 2.51416 4.78624V6.66951H0.350144C0.163147 6.66951 0.0117188 6.82111 0.0117188 7.0081V9.73674C0.0117188 9.92374 0.163319 10.0752 0.350144 10.0752H2.51416V16.9604C2.51416 17.1474 2.66559 17.2988 2.85259 17.2988H5.67602C5.86302 17.2988 6.01444 17.1472 6.01444 16.9604V10.0752H8.54469C8.73169 10.0752 8.88311 9.92374 8.88311 9.73674L8.88415 7.0081C8.88415 6.91832 8.84841 6.83233 8.78504 6.76879C8.72167 6.70525 8.63534 6.66951 8.54555 6.66951H6.01444V5.07304C6.01444 4.30571 6.1973 3.91618 7.19686 3.91618L8.64673 3.91566C8.83356 3.91566 8.98499 3.76406 8.98499 3.57724V1.04354C8.98499 0.856887 8.83373 0.705459 8.64708 0.705113Z" fill="#9C59B8"/>
</svg>
