<svg width="11" height="11" viewBox="0 0 11 11" fill="none" xmlns="http://www.w3.org/2000/svg">
<path d="M9.48006 7.08422C8.86321 7.08422 8.25901 6.9879 7.68637 6.79894C7.4069 6.70263 7.08953 6.77684 6.90585 6.96422L5.77059 7.82158C4.46796 7.12633 3.63427 6.29316 2.94849 5L3.78269 3.89158C3.99269 3.68158 4.06796 3.3742 3.97796 3.08632C3.78743 2.51 3.69059 1.90526 3.69059 1.28947C3.69059 0.854203 3.33639 0.5 2.90112 0.5H1.05901C0.623734 0.5 0.269531 0.854203 0.269531 1.28947C0.269531 6.36789 4.40164 10.5 9.48006 10.5C9.91533 10.5 10.2695 10.1458 10.2695 9.71053V7.87369C10.2695 7.43842 9.91533 7.08422 9.48006 7.08422Z" fill="#56CE84"/>
</svg>
