<svg width="15" height="15" viewBox="0 0 15 15" fill="none" xmlns="http://www.w3.org/2000/svg">
<path d="M7.58813 0.15625C3.49477 0.15625 0.175781 3.47524 0.175781 7.56859C0.175781 11.662 3.49477 14.9816 7.58813 14.9816C11.6815 14.9816 15.0011 11.662 15.0011 7.56859C15.0011 3.47524 11.6815 0.15625 7.58813 0.15625ZM9.13121 11.6444C8.74968 11.795 8.44596 11.9092 8.21816 11.9883C7.991 12.0673 7.72681 12.1069 7.42622 12.1069C6.96436 12.1069 6.60479 11.9939 6.34876 11.7686C6.09273 11.5433 5.96534 11.2578 5.96534 10.9108C5.96534 10.7759 5.97475 10.6378 5.99358 10.4973C6.01303 10.3567 6.04378 10.1986 6.08583 10.021L6.56337 8.33418C6.60542 8.17227 6.64182 8.01853 6.67068 7.87545C6.69955 7.73112 6.71335 7.59872 6.71335 7.47823C6.71335 7.26362 6.6688 7.11301 6.58032 7.02829C6.49058 6.94358 6.32178 6.90216 6.07014 6.90216C5.94714 6.90216 5.82038 6.92036 5.69049 6.95864C5.56184 6.99817 5.45014 7.03394 5.35852 7.06908L5.48466 6.54949C5.79716 6.4221 6.0965 6.31291 6.38202 6.22255C6.66754 6.13093 6.93738 6.08575 7.19153 6.08575C7.65025 6.08575 8.00418 6.19745 8.2533 6.41834C8.50118 6.63986 8.62605 6.92789 8.62605 7.28181C8.62605 7.35524 8.61727 7.48451 8.60033 7.669C8.58338 7.85412 8.55138 8.02292 8.50494 8.17792L8.0299 9.85969C7.991 9.99461 7.95648 10.149 7.92511 10.3216C7.89436 10.4941 7.8793 10.6259 7.8793 10.7144C7.8793 10.9378 7.92887 11.0903 8.02928 11.1712C8.12843 11.2522 8.30225 11.293 8.54824 11.293C8.66433 11.293 8.79423 11.2723 8.94107 11.2321C9.08666 11.1919 9.19208 11.1562 9.2586 11.1254L9.13121 11.6444ZM9.04713 4.81815C8.82561 5.02397 8.55891 5.12689 8.24703 5.12689C7.93578 5.12689 7.66719 5.02397 7.44379 4.81815C7.22165 4.61232 7.10932 4.36193 7.10932 4.06951C7.10932 3.77771 7.22228 3.5267 7.44379 3.31898C7.66719 3.11065 7.93578 3.0071 8.24703 3.0071C8.55891 3.0071 8.82624 3.11065 9.04713 3.31898C9.26864 3.5267 9.37971 3.77771 9.37971 4.06951C9.37971 4.36256 9.26864 4.61232 9.04713 4.81815Z" fill="#56CE84"/>
</svg>
