<svg width="15" height="14" viewBox="0 0 15 14" fill="none" xmlns="http://www.w3.org/2000/svg">
<path d="M14.5 2.90886V11.0911C14.5 12.6977 13.1977 14 11.5911 14H3.40886C1.80233 14 0.5 12.6977 0.5 11.0911V2.90886C0.5 1.30233 1.80233 0 3.40886 0H11.5911C13.1977 0 14.5 1.30233 14.5 2.90886ZM6.01703 10.9667C9.47012 12.1581 12.6581 8.97012 11.4667 5.51703C11.0653 4.35321 10.1469 3.43472 8.98306 3.03328C5.52988 1.84186 2.34186 5.02988 3.53328 8.48306C3.93472 9.64687 4.85313 10.5653 6.01703 10.9667ZM2.64213 2.76667C2.69707 3.05438 2.93513 3.22178 3.1814 3.22178C3.33127 3.22178 3.48406 3.15991 3.60104 3.02567C3.61138 3.01379 3.62103 3.00106 3.62958 2.98782C3.75032 2.80325 3.75408 2.58398 3.65145 2.40616C3.57882 2.2803 3.46159 2.19041 3.32119 2.15281C3.18097 2.11504 3.03434 2.13444 2.90864 2.20715C2.73074 2.30969 2.62444 2.50153 2.63657 2.72147C2.63743 2.73651 2.63922 2.75181 2.64213 2.76667Z" fill="#9C59B8"/>
<path d="M7.5 3.59895C9.37544 3.59895 10.901 5.12456 10.901 7C10.901 8.87544 9.37544 10.401 7.5 10.401C5.62456 10.401 4.09895 8.87544 4.09895 7C4.09895 5.12456 5.62456 3.59895 7.5 3.59895Z" fill="#9C59B8"/>
</svg>
