<svg width="11" height="13" viewBox="0 0 11 13" fill="none" xmlns="http://www.w3.org/2000/svg">
<path d="M5.50001 3.62908C4.58356 3.62908 3.838 4.37445 3.838 5.29059C3.838 6.20674 4.58356 6.9521 5.50001 6.9521C6.41646 6.9521 7.16203 6.20674 7.16203 5.29059C7.16203 4.37445 6.41644 3.62908 5.50001 3.62908Z" fill="#56CE84"/>
<path d="M9.38908 1.61043C8.35029 0.571924 6.9691 0 5.50001 0C4.03092 0 2.64973 0.571924 1.61094 1.61043C0.572098 2.64895 0 4.0297 0 5.49831C0 8.46935 2.81007 10.9405 4.31975 12.2681C4.52952 12.4526 4.71068 12.6119 4.85497 12.7466C5.03583 12.9156 5.26787 13 5.49999 13C5.73208 13 5.96417 12.9155 6.145 12.7467C6.28934 12.6119 6.47048 12.4526 6.68025 12.2681C8.18993 10.9405 11 8.46937 11 5.49834C11 4.0297 10.4279 2.64895 9.38908 1.61043ZM5.50001 7.7136C4.16353 7.7136 3.07625 6.62665 3.07625 5.29057C3.07625 3.95449 4.16353 2.86754 5.50001 2.86754C6.8365 2.86754 7.92378 3.95449 7.92378 5.29057C7.92378 6.62665 6.83647 7.7136 5.50001 7.7136Z" fill="#56CE84"/>
</svg>
