<svg width="8" height="2" viewBox="0 0 8 2" fill="none" xmlns="http://www.w3.org/2000/svg">
<path d="M7.28571 1.42869H4.85714C4.77825 1.42869 4.66797 1.42869 4.59375 1.42871L4.27344 1.42869C3.97656 1.42871 4.37102 1.42871 3.97656 1.42871C3.5821 1.42871 3.89453 1.4287 3.57031 1.42869L3.32812 1.4287C3.26953 1.42871 3.22175 1.42869 3.14286 1.42869H0.714286C0.319824 1.42869 0 1.10887 0 0.714404C0 0.319943 0.319824 0.000118256 0.714286 0.000118256H3.14286C3.22175 0.000118256 3.14286 0.000118256 3.32812 0.000118256H3.5C3.97656 0.000118256 3.61719 0.000118256 3.97656 0.000118256C4.37102 0.000118256 4.26953 0.000118256 4.5 0.000118256H4.74609C4.79297 0.000118256 4.74609 0.000118256 4.85714 0.000118256H7.28571C7.68018 0.000118256 8 0.319943 8 0.714404C8 1.10887 7.68018 1.42869 7.28571 1.42869Z" fill="#56CE84"/>
</svg>
