<svg width="8" height="8" viewBox="0 0 8 8" fill="none" xmlns="http://www.w3.org/2000/svg">
<path d="M7.28571 4.71429H4.85714C4.77825 4.71429 4.71429 4.77825 4.71429 4.85714V7.28571C4.71429 7.68018 4.39446 8 4 8C3.60554 8 3.28571 7.68018 3.28571 7.28571V4.85714C3.28571 4.77825 3.22175 4.71429 3.14286 4.71429H0.714286C0.319824 4.71429 0 4.39446 0 4C0 3.60554 0.319824 3.28571 0.714286 3.28571H3.14286C3.22175 3.28571 3.28571 3.22175 3.28571 3.14286V0.714285C3.28571 0.319824 3.60554 0 4 0C4.39446 0 4.71429 0.319824 4.71429 0.714285V3.14286C4.71429 3.22175 4.77825 3.28571 4.85714 3.28571H7.28571C7.68018 3.28571 8 3.60554 8 4C8 4.39446 7.68018 4.71429 7.28571 4.71429Z" fill="#56CE84"/>
</svg>
