<svg width="3" height="6" viewBox="0 0 3 6" fill="none" xmlns="http://www.w3.org/2000/svg">
<path d="M2.91855 2.76588L0.646107 0.0958529C0.593548 0.0340485 0.523387 0 0.448576 0C0.373765 0 0.303604 0.0340485 0.251045 0.0958529L0.0836955 0.292437C-0.0251999 0.420533 -0.0251999 0.628727 0.0836955 0.756628L1.99192 2.99876L0.0815781 5.24337C0.0290194 5.30518 0 5.38757 0 5.47542C0 5.56337 0.0290194 5.64576 0.0815781 5.70761L0.248927 5.90415C0.301528 5.96595 0.371648 6 0.446459 6C0.52127 6 0.591431 5.96595 0.64399 5.90415L2.91855 3.23168C2.97123 3.16968 3.00017 3.0869 3 2.9989C3.00017 2.91056 2.97123 2.82783 2.91855 2.76588Z" fill="#33425F"/>
</svg>
