<svg width="11" height="21" viewBox="0 0 11 21" fill="none" xmlns="http://www.w3.org/2000/svg">
<path d="M10.1852 7.875C10.6352 7.875 11 7.50775 11 7.05469C11 6.60163 10.6352 6.23438 10.1852 6.23438H8.55556V4.96289H10.1852C10.6352 4.96289 11 4.59564 11 4.14258C11 3.68952 10.6352 3.32227 10.1852 3.32227H8.53726C8.35271 1.45946 6.78696 0 4.88889 0C2.86709 0 1.22222 1.65596 1.22222 3.69141V12.8225C0.431526 13.7219 0 14.865 0 16.0781C0 18.792 2.19316 21 4.88889 21C7.58462 21 9.77778 18.792 9.77778 16.0781C9.77778 15.0472 9.46428 14.0598 8.87109 13.2228C8.60974 12.854 8.10089 12.7683 7.73459 13.0314C7.36825 13.2946 7.28314 13.8068 7.54449 14.1756C7.93939 14.7329 8.14815 15.3908 8.14815 16.0781C8.14815 17.8874 6.68604 19.3594 4.88889 19.3594C3.09173 19.3594 1.62963 17.8874 1.62963 16.0781C1.62963 15.1896 1.9769 14.3576 2.60749 13.7351C2.76377 13.5808 2.85185 13.3697 2.85185 13.1494V3.69141C2.85185 2.56061 3.76567 1.64062 4.88889 1.64062C6.01211 1.64062 6.92593 2.56061 6.92593 3.69141V9.92578C6.92593 10.3788 7.29072 10.7461 7.74074 10.7461H10.1852C10.6352 10.7461 11 10.3788 11 9.92578C11 9.47272 10.6352 9.10547 10.1852 9.10547H8.55556V7.875H10.1852Z" fill="#33425F"/>
<path d="M4.88889 2.87109C4.43887 2.87109 4.07407 3.23835 4.07407 3.69141V14.6575C3.5871 14.9413 3.25926 15.471 3.25926 16.0781C3.25926 16.9842 3.98889 17.7188 4.88889 17.7188C5.78889 17.7188 6.51852 16.9842 6.51852 16.0781C6.51852 15.471 6.19068 14.9413 5.7037 14.6575V3.69141C5.7037 3.23835 5.33891 2.87109 4.88889 2.87109Z" fill="#33425F"/>
</svg>
