<svg width="10" height="6" viewBox="0 0 10 6" fill="none" xmlns="http://www.w3.org/2000/svg">
<path d="M5.46651 0.658229L9.83346 4.3749C9.93455 4.46087 9.99023 4.57562 9.99023 4.69797C9.99023 4.82033 9.93455 4.93508 9.83346 5.02105L9.51194 5.29475C9.30243 5.47286 8.96192 5.47286 8.75274 5.29475L5.08564 2.17377L1.41447 5.29822C1.31338 5.38418 1.17863 5.43164 1.03494 5.43164C0.891096 5.43164 0.756344 5.38418 0.655181 5.29822L0.333739 5.02451C0.232656 4.93848 0.176968 4.82379 0.176968 4.70144C0.176968 4.57908 0.232655 4.46433 0.333739 4.37837L4.70468 0.658229C4.80608 0.572063 4.94147 0.524736 5.0854 0.525008C5.22988 0.524736 5.36519 0.572063 5.46651 0.658229Z" fill="#33425F"/>
</svg>
