<svg width="56" height="56" viewBox="0 0 56 56" fill="none" xmlns="http://www.w3.org/2000/svg">
<path d="M33.8046 49.2692C32.9662 48.9256 32.0079 49.3268 31.6644 50.1651L30.2006 53.7368C29.857 54.5752 30.2582 55.5333 31.0965 55.877C31.935 56.2206 32.8931 55.8195 33.2368 54.9811L34.7005 51.4095C35.0442 50.571 34.6431 49.6129 33.8046 49.2692Z" fill="#56CE84"/>
<path d="M6.46089 49.2692C5.62242 48.9256 4.66419 49.3268 4.32064 50.1651L2.85687 53.7368C2.51322 54.5752 2.91441 55.5333 3.75276 55.877C4.59123 56.2206 5.54947 55.8195 5.89312 54.9811L7.35689 51.4095C7.70044 50.571 7.29936 49.6129 6.46089 49.2692Z" fill="#56CE84"/>
<path d="M15.5757 49.2692C14.7373 48.9256 13.7791 49.3268 13.4354 50.1651L11.9715 53.7368C11.6279 54.5751 12.029 55.5333 12.8674 55.877C13.7058 56.2207 14.664 55.8195 15.0077 54.9811L16.4715 51.4095C16.8151 50.5711 16.414 49.6129 15.5757 49.2692Z" fill="#56CE84"/>
<path d="M24.6901 49.2692C23.8516 48.9256 22.8934 49.3268 22.5498 50.1651L21.0861 53.7368C20.7424 54.5752 21.1436 55.5333 21.982 55.877H21.9821C22.8205 56.2206 23.7787 55.8195 24.1223 54.9811L25.5861 51.4095C25.9296 50.571 25.5286 49.6129 24.6901 49.2692Z" fill="#56CE84"/>
<path d="M54.3594 15.3125H52.1719C51.2658 15.3125 50.5312 16.047 50.5312 16.9531C50.5312 17.8592 51.2658 18.5937 52.1719 18.5937H54.3594C55.2654 18.5937 56 17.8592 56 16.9531C56 16.047 55.2654 15.3125 54.3594 15.3125Z" fill="#56CE84"/>
<path d="M47.1675 8.83235C47.8083 9.47307 48.847 9.47307 49.4877 8.83235L51.0345 7.28557C51.6752 6.64485 51.6752 5.60612 51.0345 4.9654C50.3938 4.32468 49.355 4.32468 48.7143 4.9654L47.1675 6.51218C46.5268 7.1529 46.5268 8.19163 47.1675 8.83235Z" fill="#56CE84"/>
<path d="M39.0469 5.46874C39.9529 5.46874 40.6875 4.73418 40.6875 3.82812V1.64062C40.6875 0.734562 39.9529 0 39.0469 0C38.1408 0 37.4062 0.734562 37.4062 1.64062V3.82812C37.4062 4.73418 38.1408 5.46874 39.0469 5.46874Z" fill="#56CE84"/>
<path d="M28.606 8.83246C29.2468 9.47318 30.2855 9.47318 30.9262 8.83246C31.5669 8.19174 31.5669 7.15301 30.9262 6.51229L29.3794 4.96551C28.7387 4.32479 27.7 4.32479 27.0593 4.96551C26.4185 5.60623 26.4185 6.64496 27.0593 7.28568L28.606 8.83246Z" fill="#56CE84"/>
<path d="M49.4877 25.0738C48.847 24.433 47.8081 24.433 47.1675 25.0738C46.5268 25.7145 46.5268 26.7532 47.1675 27.3939L48.7143 28.9407C49.355 29.5814 50.3939 29.5814 51.0345 28.9407C51.6752 28.3 51.6752 27.2613 51.0345 26.6205L49.4877 25.0738Z" fill="#56CE84"/>
<path d="M43.3835 25.1699C46.3305 23.6098 48.3438 20.5136 48.3438 16.9531C48.3438 11.8268 44.1732 7.65624 39.0469 7.65624C36.0085 7.65624 33.2111 9.13455 31.4881 11.5416C29.1643 10.1185 26.4343 9.29686 23.5156 9.29686C15.584 9.29686 9.04148 15.3591 8.27761 23.0932C3.59111 23.8454 0 27.9173 0 32.8125C0 37.4374 3.20633 41.3269 7.51264 42.3766L6.86186 43.9645C6.5182 44.803 6.91939 45.7611 7.75775 46.1048C8.59622 46.4483 9.55445 46.0473 9.89811 45.2089L10.9443 42.6562H16.5127L15.9765 43.9645C15.6329 44.803 16.034 45.7611 16.8724 46.1048H16.8725C17.711 46.4483 18.6691 46.0473 19.0128 45.2089L20.0588 42.6562H25.6272L25.091 43.9645C24.7473 44.8029 25.1484 45.7611 25.9868 46.1048C26.8252 46.4484 27.7834 46.0473 28.1271 45.2089L29.1734 42.6562H34.7418L34.2056 43.9645C33.862 44.803 34.2631 45.7611 35.1015 46.1048C35.94 46.4483 36.8981 46.0473 37.2417 45.2089L38.3145 42.5913C43.2135 42.0303 47.0312 37.8591 47.0312 32.8125C47.0312 29.7307 45.6073 26.9761 43.3835 25.1699ZM39.0469 10.9375C42.3639 10.9375 45.0625 13.6361 45.0625 16.9531C45.0625 20.2701 42.3639 22.9687 39.0469 22.9687C38.9442 22.9687 38.8415 22.9646 38.7389 22.9593C38.3422 19.2746 36.6337 15.977 34.0903 13.5451C35.1992 11.9324 37.042 10.9375 39.0469 10.9375ZM37.1875 39.375H9.84375C6.22519 39.375 3.28125 36.431 3.28125 32.8125C3.28125 29.7176 5.43539 27.1181 8.32256 26.4299C8.49909 27.9127 8.88945 29.3546 9.49156 30.7342C9.76073 31.3511 10.3635 31.719 10.9961 31.719C11.2151 31.719 11.4379 31.6749 11.6515 31.5817C12.482 31.2193 12.8614 30.2522 12.499 29.4217C11.8345 27.8989 11.4964 26.2791 11.4943 24.6071C11.5767 18.0437 16.9329 12.5781 23.5156 12.5781C29.6463 12.5781 34.7203 17.1875 35.455 23.1227C33.4852 23.4706 31.6708 24.408 30.2269 25.852C29.5862 26.4927 29.5862 27.5314 30.2269 28.1721C30.5472 28.4925 30.9671 28.6527 31.3869 28.6527C31.8067 28.6527 32.2267 28.4926 32.5469 28.1721C33.7866 26.9326 35.4347 26.25 37.1875 26.25C40.8061 26.25 43.75 29.1939 43.75 32.8125C43.75 36.431 40.8061 39.375 37.1875 39.375Z" fill="#56CE84"/>
</svg>
