<?xml version="1.0" encoding="iso-8859-1"?>
<!-- Generator: Adobe Illustrator 19.0.0, SVG Export Plug-In . SVG Version: 6.00 Build 0)  -->
<svg version="1.1" id="Capa_1" xmlns="http://www.w3.org/2000/svg" xmlns:xlink="http://www.w3.org/1999/xlink" x="0px" y="0px"
	 viewBox="0 0 512 512" style="enable-background:new 0 0 512 512;" xml:space="preserve">
<g>
	<g>
		<path d="M256.001,121.002C189.832,121.002,136,174.834,136,241.002s53.831,120.001,120.001,120.001
			c66.168,0,120.001-53.832,120.001-120.001S322.169,121.002,256.001,121.002z M256.001,331.003
			c-49.626,0-90.001-40.374-90.001-90.001s40.374-90.001,90.001-90.001s90.001,40.374,90.001,90.001
			S305.627,331.003,256.001,331.003z" fill="#ffffff" />
	</g>
</g>
<g>
	<g>
		<path d="M256.001,181.002c-33.084,0-60,26.916-60,60s26.916,60,60,60c33.084,0,60-26.916,60-60S289.085,181.002,256.001,181.002z
			 M256.001,271.003c-16.542,0-30-13.458-30-30s13.458-30,30-30s30,13.458,30,30S272.543,271.003,256.001,271.003z" fill="#ffffff" />
	</g>
</g>
<g>
	<g>
		<path d="M507.058,446.886c-16.402-32.16-55.403-60.961-108.822-80.987c42.746-39.75,67.764-94.811,67.764-154.897
			C466.001,95.152,371.982,0,256,0C140.165,0,45.999,95.015,45.999,211.001c0,57.634,23.206,113.46,67.764,154.897
			c-53.415,20.026-92.417,48.823-108.82,80.98c-7.823,15.336-6.216,33.372,4.194,47.069c10.716,14.099,28.215,20.653,45.668,17.102
			c127.864-26.006,274.531-26.005,402.393,0.001c17.431,3.545,34.937-2.987,45.663-17.099
			C513.272,480.256,514.88,462.222,507.058,446.886z M76,211.002c0-99.805,80.748-181.001,180.001-181.001
			s180.001,81.196,180.001,181.001s-80.748,181.001-180.001,181.001S76,310.807,76,211.002z M478.978,475.799
			c-3.738,4.918-9.645,7.106-15.799,5.855c-131.663-26.78-282.688-26.78-414.352-0.001c-6.161,1.252-12.066-0.938-15.804-5.857
			c-1.646-2.167-5.075-7.993-1.355-15.285c14.234-27.904,56.137-55.4,110.172-72.572c33.748,22.165,73.077,34.065,114.162,34.065
			s80.413-11.9,114.162-34.065c54.035,17.173,95.939,44.671,110.172,72.578C484.052,467.808,480.625,473.633,478.978,475.799z" fill="#ffffff"/>
	</g>
</g>
<g>
	<g>
		<circle cx="256.002" cy="76.001" r="15" fill="#ffffff" />
	</g>
</g>
<g>
</g>
<g>
</g>
<g>
</g>
<g>
</g>
<g>
</g>
<g>
</g>
<g>
</g>
<g>
</g>
<g>
</g>
<g>
</g>
<g>
</g>
<g>
</g>
<g>
</g>
<g>
</g>
<g>
</g>
</svg>
