<svg width="18" height="13" viewBox="0 0 18 13" fill="none" xmlns="http://www.w3.org/2000/svg">
<path d="M17.2334 10.4044C17.0355 11.1402 16.4554 11.7203 15.7197 11.9184C14.3757 12.2861 8.99952 12.2861 8.99952 12.2861C8.99952 12.2861 3.62356 12.2861 2.27954 11.9323C1.558 11.7344 0.963721 11.1401 0.765804 10.4044C0.412109 9.06053 0.412109 6.27344 0.412109 6.27344C0.412109 6.27344 0.412109 3.47229 0.765804 2.14243C0.963931 1.40674 1.54385 0.826715 2.27964 0.628589C3.63771 0.260742 8.99973 0.260742 8.99973 0.260742C8.99973 0.260742 14.3757 0.260742 15.7197 0.614541C16.4555 0.812564 17.0355 1.39258 17.2337 2.12828C17.5872 3.47229 17.5872 6.25929 17.5872 6.25929C17.5872 6.25929 17.6014 9.06053 17.2334 10.4044ZM7.28786 3.69862V8.84826L11.7584 6.27344L7.28786 3.69862Z" fill="#9C59B8"/>
</svg>
